<?xml version="1.0" encoding="UTF-8" standalone="no"?>
<svg
   xmlns:dc="http://purl.org/dc/elements/1.1/"
   xmlns:cc="http://creativecommons.org/ns#"
   xmlns:rdf="http://www.w3.org/1999/02/22-rdf-syntax-ns#"
   xmlns:svg="http://www.w3.org/2000/svg"
   xmlns="http://www.w3.org/2000/svg"
   xmlns:sodipodi="http://sodipodi.sourceforge.net/DTD/sodipodi-0.dtd"
   xmlns:inkscape="http://www.inkscape.org/namespaces/inkscape"
   width="210mm"
   height="297mm"
   viewBox="0 0 210 297"
   version="1.1"
   id="svg8"
   inkscape:version="1.0.2 (e86c870879, 2021-01-15, custom)"
   sodipodi:docname="logo.svg">
  <defs
     id="defs2">
    <rect
       x="44.097222"
       y="247.82639"
       width="122.14931"
       height="34.836806"
       id="rect949" />
    <rect
       x="112.88889"
       y="265.90625"
       width="111.125"
       height="11.90625"
       id="rect943" />
    <rect
       x="22.930556"
       y="251.35417"
       width="82.020833"
       height="21.166667"
       id="rect935" />
    <rect
       x="101.42361"
       y="268.55208"
       width="77.170139"
       height="15.434028"
       id="rect929" />
    <rect
       x="110.68403"
       y="268.11111"
       width="86.430556"
       height="13.229167"
       id="rect923" />
  </defs>
  <sodipodi:namedview
     id="base"
     pagecolor="#ffffff"
     bordercolor="#666666"
     borderopacity="1.0"
     inkscape:pageopacity="0.0"
     inkscape:pageshadow="2"
     inkscape:zoom="0.6"
     inkscape:cx="511.53433"
     inkscape:cy="563.14621"
     inkscape:document-units="mm"
     inkscape:current-layer="layer1"
     inkscape:document-rotation="0"
     showgrid="false"
     inkscape:window-width="1920"
     inkscape:window-height="1017"
     inkscape:window-x="-8"
     inkscape:window-y="1072"
     inkscape:window-maximized="1" />
  <metadata
     id="metadata5">
    <rdf:RDF>
      <cc:Work
         rdf:about="">
        <dc:format>image/svg+xml</dc:format>
        <dc:type
           rdf:resource="http://purl.org/dc/dcmitype/StillImage" />
        <dc:title></dc:title>
      </cc:Work>
    </rdf:RDF>
  </metadata>
  <g
     inkscape:label="Layer 1"
     inkscape:groupmode="layer"
     id="layer1">
    <path
       style="fill:none;stroke:#000000;stroke-width:0.264583px;stroke-linecap:butt;stroke-linejoin:miter;stroke-opacity:1"
       d="m 164.92361,8.3784722 -10.58334,44.5381938 -66.145828,51.593754 -27.340276,47.18402 15.875,48.50695 -0.110242,-44.97917 77.280376,-45.86111 14.11111,-41.892361 z"
       id="path10"
       sodipodi:nodetypes="ccccccccc" />
    <path
       style="fill:none;stroke:#000000;stroke-width:0.264583px;stroke-linecap:butt;stroke-linejoin:miter;stroke-opacity:1"
       d="M 76.729166,200.20139 Z"
       id="path12" />
    <path
       style="fill:none;stroke:#000000;stroke-width:0.264583px;stroke-linecap:butt;stroke-linejoin:miter;stroke-opacity:1"
       d="m 78.989149,199.92578 9.646267,-20.00912 49.388884,-32.63194 27.78125,-12.78819 11.90625,-29.98611 -2.20486,47.62499 -22.93055,30.86806 -39.6875,20.28472 z"
       id="path14" />
    <path
       style="fill:#5fd3bc"
       d="m 80.448128,204.39437 c 7.503039,3.2578 15.529108,5.38236 24.789242,4.83312 5.71194,0.39243 11.41393,0.73514 16.83799,-0.31181 15.04124,-3.74177 28.61924,-7.48355 33.20823,-11.22532 7.58617,-5.92198 13.19276,-13.29564 16.37026,-22.45064 0.12002,6.84574 1.98135,18.89505 -0.0992,22.69653 -2.33949,14.32972 -5.93211,30.57029 -10.81434,36.08049 -13.87414,10.96171 -21.79547,11.18424 -31.96098,11.84895 -18.68739,1.96626 -18.49572,1.97058 -53.63209,-1.55907 C 50.036433,234.36966 45.82364,223.65494 44.277653,214.52834 31.266845,186.43805 34.148317,169.02669 32.852431,155.66319 c -1.499336,-13.59557 -0.113316,-21.47833 4.630208,-26.67882 7.963307,-8.76998 18.583475,-8.95149 23.8125,-10.58333 -9.020459,4.8989 -15.00114,6.45845 -17.859375,13.22917 -3.905074,7.50973 -2.052385,7.27074 -3.086807,9.03993 -2.202199,9.80586 -1.403423,11.86062 -1.212673,17.30816 0.130139,8.32427 0.685413,17.23855 6.17361,23.15104 -0.387121,16.9245 5.277745,22.59726 11.575522,28.77343 6.26048,10.09416 10.536366,10.26066 15.434027,11.68577 6.731832,7.18682 10.583333,5.73264 15.874999,8.59896 l 26.458338,0.66146 18.74132,-3.08681 20.94617,-9.92188 c -15.61226,0.40014 -24.94669,2.28644 -37.70312,0.88195 -19.01349,0.0567 -28.011405,-1.78613 -29.98611,-4.96094 -6.0452,-7.54182 -5.031711,-7.24065 -6.202912,-9.36691 z"
       id="path16"
       sodipodi:nodetypes="cccccccccccccccccccccccccc" />
    <path
       style="fill:none;stroke:#000000;stroke-width:0.264583px;stroke-linecap:butt;stroke-linejoin:miter;stroke-opacity:1"
       d="m 168.01041,67.468749 -10.14236,15.654515 -5.07118,12.34722 -9.03993,4.630206 -23.15104,7.49653 -21.166666,14.3316 -16.756943,18.52083 -9.039932,10.14236 -0.881943,13.89063 2.425348,18.07986 1.543402,17.63889"
       id="path22" />
    <path
       style="fill:#e01b24;stroke-width:0.833333"
       d="M 234.69106,640.50848 230,573.33332 259.93005,468.90544 301.22757,381.54823 c 0,0 32.56241,-47.20737 61.26308,-68.34816 80.71043,-59.45096 177.27366,-39.98734 234.9501,-187.71192 C 615.0673,73.779678 625.46722,25.701844 609.64,95.770899 l 13.69334,-64.104232 c -13.50725,-10.018827 0.33337,-6.121471 -0.21606,15.392651 -0.10425,4.082169 2.84562,52.626929 5.71547,107.894692 l 5.2179,100.48683 -19.0659,29.41884 -19.0659,29.41883 -9.64154,23.32382 -9.64155,23.3238 -16.68892,8.6202 -16.68894,8.6202 -44.00065,14.24888 -44.00066,14.24888 -40.14375,27.21225 -40.14375,27.21224 -30.83333,34.08383 c -16.95833,18.74611 -38.89583,43.11787 -48.75,54.15947 l -17.91667,20.07565 -1.68759,26.69639 -1.68759,26.69638 3.52345,28.75 c 11.92312,97.28821 17.71516,110.89164 15.50931,108.56586 -23.8825,-25.18091 -54.96028,-69.8418 -58.43561,-119.60788 z"
       id="path847"
       transform="scale(0.26458333)"
       sodipodi:nodetypes="scccscccsscccccccccccsscccsss" />
    <path
       style="fill:none;stroke:#000000;stroke-width:0.264583px;stroke-linecap:butt;stroke-linejoin:miter;stroke-opacity:1"
       d="m 177.7118,104.51042 -4.74045,29.10416 -1.43316,10.80382 -17.4184,18.1901 -9.37066,10.58334 -20.28472,15.76476 -10.47309,5.84288 -19.07205,2.09462 -15.930121,3.03168"
       id="path849"
       sodipodi:nodetypes="ccccccccc" />
    <path
       style="fill:#ed333b;stroke-width:1.17851"
       d="m 305.80886,743.42852 c 2.61255,-5.67159 10.66928,-22.24441 17.90385,-36.82848 l 13.15377,-26.51651 93.10239,-61.38677 93.10239,-61.38676 52.29196,-24.0553 52.29197,-24.05531 19.58957,-49.45341 c 10.77426,-27.19938 19.74003,-48.67216 19.92391,-47.71728 0.1839,0.95487 -2.88732,21.35276 -6.82493,45.32863 -5.49041,33.43076 -12.93954,83.7155 -12.93954,87.34732 0,0.21088 -14.13595,15.11266 -31.4132,33.11507 -17.27727,18.00241 -40.1113,42.51176 -50.74228,54.46523 -19.31425,21.71693 -19.35819,21.75621 -57.26977,51.19773 -32.85999,25.51853 -40.61989,30.95968 -57.94786,40.63236 l -20.00717,11.16823 -35.97212,3.92772 c -22.60478,2.46817 -46.31243,5.89754 -63.79834,9.2286 -15.30442,2.9155 -28.13413,5.3009 -28.51045,5.3009 -0.37633,0 1.45331,-4.64039 4.06585,-10.31197 z"
       id="path851"
       transform="scale(0.26458333)" />
    <path
       style="fill:#ed333b;stroke-width:1.17851"
       d="m 298.54167,755.625 c -13.29604,5.57784 9.78212,-25.98202 18.80408,-45.35871 0,0 14.12465,-25.39899 20.35406,-38.5161 2.4232,-5.10248 6.60831,-15.60433 6.60831,-15.60433 -2.03201,-8.49661 76.66667,-65 145.2752,-86.97919 0,0 113.75862,-60.11561 134.35071,-76.33494 8.68632,-6.84177 16.09553,-29.00503 16.09553,-29.00503 l 28.91409,-61.03853 c 8.83318,-18.64711 -3.97814,15.10185 -3.93926,18.61213 0.0179,1.62046 -2.59771,19.38651 -5.81258,39.48013 -3.21486,20.09362 -7.31483,47.10395 -9.11103,60.02297 l -3.26583,23.48911 -25.81965,27.18688 c -14.20082,14.95277 -37.12639,39.47295 -50.94571,54.48928 -25.96441,28.2134 -30.51488,32.28026 -70.54856,63.05124 -23.24038,17.86318 -36.87038,27.11102 -54.89889,37.24842 l -14.82952,8.33859 -37.04952,15.41432 c -28.31402,11.77994 -45.94835,1.36045 -69.23692,3.48729 C 290,756.66668 293.7873,760.16116 298.54167,755.625 Z"
       id="path853"
       transform="scale(0.26458333)"
       sodipodi:nodetypes="csascscsssscsssscssc" />
    <path
       style="fill:#c01c28;stroke-width:1.17851"
       d="m 354.94854,774.61002 c -51.10686,-5.3857 -55.92549,-18.96432 -49.81304,-20.25168 26.35034,-5.54971 75.4965,0.22411 105.13439,-11.7633 l 19.50273,-7.88812 16.78318,-14.16974 c 45.38806,-25.04172 24.55488,-11.17495 55.77542,-38.12634 l 35.8464,-30.9447 24.78256,-20.9098 c 12.48707,-10.53572 33.00519,-38.48334 50.18469,-56.39731 0,0 21.85134,-12.85058 29.35512,-25.8257 4.60245,-7.9583 5.56534,-32.49326 5.56534,-32.49326 11.68263,-51.84692 16.10417,-118.8362 24.56381,-111.73756 l 0.18291,13.67851 v 0 c 0,0 -7.58921,147.95539 -7.62697,152.8002 -0.0378,4.84848 -2.13399,4.09124 -38.85103,62.60594 l -41.31122,65.8363 -65.37216,33.79932 c -66.20756,34.23123 -85.34907,41.29234 -90.84805,41.19488 -3.24091,-0.0574 -44.87107,3.64662 -73.85408,0.59236 z"
       id="path855"
       transform="scale(0.26458333)"
       sodipodi:nodetypes="sssccscsssscccsscsss" />
    <path
       style="fill:#c01c28;stroke-width:1.17851"
       d="m 280.88619,722.33223 c 0,0 -9.26985,-43.73483 -13.06099,-65.75863 -1.93002,-11.21197 -5.45924,-22.33549 -4.92715,-33.7731 0.4884,-10.49839 2.45227,-32.57858 2.45227,-32.57858 -2.53375,-27.90568 10.62176,-25.299 13.42392,-28.34457 1.60946,-1.74927 11.68035,-12.99159 22.37975,-24.39368 10.9969,-11.71914 30.42305,-41.36052 47.61767,-54.46812 l 27.06167,-22.18221 39.9934,-33.12833 39.42986,-21.04072 31.21448,-23.22474 C 562.49492,326.87499 620.78217,273.977 613.21805,288.84267 l -25.3527,49.82535 -13.55288,-10.6066 c 0,0 45.67399,-51.18605 59.44228,-72.58316 8.4624,-13.15128 -5.6729,13.08481 -5.48453,13.64995 0.18839,0.56514 -10.43885,33.06003 -23.61608,72.21086 0,0 -7.45038,52.16448 -22.98749,71.99426 -32.79768,41.85917 -67.63867,45.75466 -101.77647,68.15152 -48.30739,31.69313 -144.39225,92.73891 -145.81062,93.71118 -2.46803,1.6918 -28.82952,12.76207 -36.03199,87.00841 -4.13923,42.6692 -7.98973,78.04419 -7.98973,78.04419 0.30853,-0.18703 -7.21442,-4.58037 -9.17165,-17.9164 z"
       id="path857"
       transform="scale(0.26458333)"
       sodipodi:nodetypes="sassssscccsscsssssassss"
       sodipodi:insensitive="true" />
    <path
       style="fill:#5fd3bc"
       d="m 122.07536,208.91568 c 3.35019,1.38312 6.48794,2.94006 12.97238,1.7588 9.63455,-1.03517 18.33008,-3.41182 25.90712,-7.38629 -1.14497,5.46896 -2.05121,11.07719 -6.61459,14.55208 v 0 l 6.61459,-14.55208"
       id="path887"
       sodipodi:nodetypes="cccccc" />
    <path
       style="fill:#5fd3bc"
       d="m 43.986979,124.02344 c -1.966997,1.89151 -3.784359,3.93265 -1.433161,10.14236"
       id="path889"
       sodipodi:nodetypes="cc" />
    <path
       style="fill:#37abc8;stroke-width:1.17851"
       d="m 403.49388,932.92329 c -12.40282,-0.65427 -35.74693,-2.59276 -77.19249,-6.41004 -43.26348,-3.98471 -43.48445,-4.03619 -68.35365,-15.92488 -50.95474,-24.35884 -79.20355,-53.48804 -87.34723,-90.06949 -1.08223,-4.86136 -4.52411,-14.93763 -7.64862,-22.39172 -17.70093,-42.2287 -27.31939,-77.05065 -32.2554,-116.77507 -0.99975,-8.04592 -2.36439,-28.15236 -3.03252,-44.68098 -0.66814,-16.52862 -1.99041,-39.86314 -2.93839,-51.85449 -2.1594,-27.31521 -2.1607,-39.98272 -0.006,-54.27937 3.18229,-21.11019 9.25302,-33.6199 22.7005,-46.77798 8.57036,-8.38592 12.15408,-10.65076 10.25634,-6.48181 -1.69196,3.71687 -1.93872,16.06594 -0.44542,22.29072 1.27159,5.30057 1.19547,6.76851 -0.58095,11.20269 -1.12436,2.80656 -2.77312,8.81515 -3.66392,13.35241 -0.8908,4.53727 -2.41214,11.96579 -3.38075,16.50781 -3.58686,16.81962 -4.25434,29.02522 -3.04106,55.60965 0.64508,14.13444 1.76657,30.47195 2.4922,36.30558 2.40975,19.37297 9.0189,37.6383 17.43584,48.18638 3.36448,4.21638 3.65659,5.29642 3.66549,13.55288 0.0224,20.82628 4.26103,42.545 11.25882,57.69081 5.07356,10.98106 12.24923,21.03143 23.86032,33.41918 5.04449,5.38192 11.78494,13.49289 14.97878,18.02436 12.57788,17.84571 24.90291,27.13616 42.9948,32.40893 6.46761,1.88493 10.10348,3.75864 13.55288,6.98432 11.70949,10.95003 19.67396,15.44384 37.69002,21.26595 6.46952,2.0907 13.09864,4.4895 14.73139,5.33066 2.16251,1.11409 16.72938,1.90084 53.64461,2.8973 l 50.67598,1.36793 35.82148,-5.99462 35.82147,-5.99462 39.014,-18.39794 c 41.37867,-19.51306 45.82077,-22.32937 52.18719,-33.08695 1.63225,-2.75808 4.01798,-7.77875 5.30162,-11.15704 2.60058,-6.84415 8.21293,-30.60105 7.41721,-31.39679 -0.28025,-0.28025 -4.89478,1.49546 -10.25451,3.94601 -14.49874,6.62906 -30.4188,12.14553 -46.27882,16.0361 -19.31971,4.73925 -54.8184,9.75012 -63.06892,8.90258 -7.45567,-0.7659 -22.37314,-5.10915 -22.37314,-6.51398 0,-0.519 3.04939,-1.62024 6.77644,-2.44722 29.85325,-6.62397 82.75062,-23.07881 98.76964,-30.72438 24.86384,-11.86702 55.61977,-45.39749 69.51841,-75.78978 2.56217,-5.60271 4.97283,-10.19163 5.35704,-10.1976 0.38421,-0.006 1.3934,11.88257 2.24265,26.41898 1.55118,26.55103 1.17198,41.07631 -1.23667,47.37226 -0.71339,1.86472 -2.59748,10.81502 -4.18686,19.88956 -8.77707,50.11222 -20.9197,92.17614 -31.87142,110.4075 -4.69396,7.81404 -10.6271,13.02234 -27.13498,23.81994 -25.89857,16.93994 -49.02625,25.09513 -78.75413,27.76991 -8.42635,0.75817 -26.19241,2.37581 -39.48012,3.59475 -25.58908,2.34741 -50.9615,3.46038 -63.63962,2.7916 z"
       id="path891"
       transform="scale(0.26458333)" />
    <path
       style="fill:#5fd3bc"
       d="m 457.83373,827.08946 c -0.41227,-0.44125 -16.8525,-1.28087 -36.53385,-1.86582 -47.08439,-1.39941 -70.46443,-4.49239 -83.51397,-11.04818 -3.2329,-1.62413 -7.98819,-5.85193 -12.18061,-10.82942 -7.03946,-8.35768 -16.55976,-21.99971 -18.03413,-25.84185 -0.9538,-2.48557 -1.86726,-2.68958 15.68576,3.50318 23.00523,8.11632 35.54366,9.98375 76.40082,11.37889 26.22404,0.89547 39.98753,0.88419 48.77228,-0.04 12.17643,-1.28097 12.29278,-1.26883 22.96326,2.3949 14.03911,4.82037 26.55272,4.95814 53.77592,0.59204 29.39116,-4.71379 57.03588,-12.70898 74.66697,-21.59459 3.14823,-1.58663 5.53472,-2.34242 5.3033,-1.67953 -0.23142,0.66289 -5.4589,12.36566 -11.61662,26.00617 l -11.19585,24.80092 -10.60661,0.0227 c -5.83363,0.0125 -21.74353,0.81583 -35.35534,1.78516 -29.16677,2.07706 -77.45963,3.56239 -78.53133,2.41537 z"
       id="path893"
       transform="scale(0.26458333)" />
    <path
       style="fill:#5fd3bc;stroke-width:1.17851"
       d=""
       id="path895"
       transform="scale(0.26458333)" />
    <path
       style="fill:#5fd3bc;stroke-width:1.17851"
       d="m 163.40157,494.07125 c 0.004,-0.97228 0.78341,-6.80591 1.73243,-12.96363 0.94902,-6.15772 1.73501,-11.5198 1.74663,-11.91574 0.0558,-1.89925 21.15954,-10.045 35.18934,-13.58258 8.64752,-2.18046 16.3373,-3.95403 17.08841,-3.94129 0.75111,0.0127 -5.71507,3.71942 -14.36929,8.23705 -22.57356,11.78374 -31.91728,19.24013 -38.38374,30.63065 -1.6559,2.91682 -3.0076,4.50781 -3.00378,3.53554 z"
       id="path897"
       transform="scale(0.26458333)" />
    <path
       style="fill:#5fd3bc;stroke-width:1.17851"
       d="m 164.54475,490.43093 c 0,-0.84736 0.64917,-6.03055 1.4426,-11.5182 l 1.4426,-9.97753 7.10161,-3.21794 c 7.31492,-3.31459 27.49812,-9.78053 34.79662,-11.14752 3.78137,-0.70824 3.92855,-0.63504 1.76776,0.87914 -1.29636,0.90843 -7.51903,4.48023 -13.82815,7.93733 -14.03434,7.69015 -23.60197,15.28515 -28.79583,22.85877 -2.15997,3.14963 -3.92721,5.03331 -3.92721,4.18595 z"
       id="path899"
       transform="scale(0.26458333)" />
    <path
       style="fill:#5fd3bc;stroke-width:1.17851"
       d="m 164.54324,490.51998 c -8.2e-4,-0.96362 0.62028,-6.20168 1.38024,-11.64013 l 1.38174,-9.8881 7.35379,-3.33436 c 8.65539,-3.92454 34.35888,-11.89521 36.78059,-11.40568 0.92347,0.18667 -4.03417,3.52139 -11.01699,7.41047 -16.81545,9.36538 -26.70526,16.9893 -31.74348,24.47063 -2.27391,3.37656 -4.13506,5.35079 -4.13589,4.38717 z"
       id="path901"
       transform="scale(0.26458333)" />
    <path
       style="fill:#5fd3bc;stroke-width:1.17851"
       d="m 164.54324,490.47941 c -8.2e-4,-0.9413 0.62028,-6.16111 1.38024,-11.59956 l 1.38174,-9.8881 7.16397,-3.23375 c 13.28312,-5.99588 42.19196,-14.26605 37.21601,-10.64667 -0.97227,0.70721 -6.57542,3.9679 -12.45143,7.24597 -14.93452,8.33158 -25.27319,16.38317 -30.35115,23.63698 -2.38583,3.40813 -4.33855,5.42644 -4.33938,4.48513 z"
       id="path903"
       transform="scale(0.26458333)" />
    <path
       style="fill:#5fd3bc;stroke-width:0.104167"
       d="m 160.88424,505.57087 c -0.0488,-0.11458 -0.34328,-0.95833 -0.65438,-1.875 -1.43435,-4.22637 -2.33141,-7.95002 -2.81061,-11.66666 -0.24588,-1.90712 -0.24721,-5.72118 -0.003,-7.3768 0.76133,-5.15205 2.78342,-8.92768 7.25271,-13.54216 0.71429,-0.73749 1.31233,-1.30001 1.32899,-1.25005 0.0166,0.05 -1.09133,8.035 -2.46219,17.74451 -1.37085,9.70952 -2.50838,17.77085 -2.52784,17.91408 -0.033,0.24268 -0.0414,0.24623 -0.12412,0.0521 z"
       id="path905"
       transform="scale(0.26458333)" />
    <text
       xml:space="preserve"
       style="font-style:normal;font-weight:normal;font-size:10.5833px;line-height:1.25;font-family:sans-serif;white-space:pre;inline-size:134.255;fill:#000000;fill-opacity:1;stroke:none;stroke-width:0.264583"
       x="33.072918"
       y="265.90625"
       id="text919" />
    <text
       xml:space="preserve"
       id="text921"
       style="fill:black;fill-opacity:1;line-height:1.25;stroke:none;font-family:sans-serif;font-style:normal;font-weight:normal;font-size:10.58333333px;white-space:pre;shape-inside:url(#rect923);" />
    <text
       xml:space="preserve"
       id="text927"
       style="fill:black;fill-opacity:1;line-height:1.25;stroke:none;font-family:sans-serif;font-style:normal;font-weight:normal;font-size:10.58333333px;white-space:pre;shape-inside:url(#rect929);" />
    <text
       xml:space="preserve"
       id="text933"
       style="fill:black;fill-opacity:1;line-height:1.25;stroke:none;font-family:sans-serif;font-style:normal;font-weight:normal;font-size:10.58333333px;white-space:pre;shape-inside:url(#rect935);" />
    <text
       xml:space="preserve"
       id="text941"
       style="fill:black;fill-opacity:1;line-height:1.25;stroke:none;font-family:sans-serif;font-style:normal;font-weight:normal;font-size:10.58333333px;white-space:pre;shape-inside:url(#rect943);" />
    <text
       xml:space="preserve"
       id="text947"
       style="font-style:normal;font-variant:normal;font-weight:bold;font-stretch:normal;font-size:14.1111px;line-height:2.55;font-family:Corbel;-inkscape-font-specification:'Corbel Bold';white-space:pre;shape-inside:url(#rect949);fill:#87cdde;fill-opacity:1;stroke:none;stroke-width:1;stroke-miterlimit:4;stroke-dasharray:none;letter-spacing:1.48166667px;word-spacing:0.079375px;"><tspan
         x="44.097656"
         y="269.25603"><tspan
           style="font-style:normal;font-variant:normal;font-weight:bold;font-stretch:normal;font-size:14.1111px;font-family:Corbel;-inkscape-font-specification:'Corbel Bold';fill:#87cdde;stroke-width:1;stroke-miterlimit:4;stroke-dasharray:none">LOGOTYPE</tspan></tspan></text>
  </g>
</svg>
